<?xml version="1.0" standalone="no"?>
<!DOCTYPE svg PUBLIC "-//W3C//DTD SVG 20010904//EN"
 "http://www.w3.org/TR/2001/REC-SVG-20010904/DTD/svg10.dtd">
<svg version="1.0" xmlns="http://www.w3.org/2000/svg"
 width="979.000000pt" height="980.000000pt" viewBox="0 0 979.000000 980.000000"
 preserveAspectRatio="xMidYMid meet">

<g transform="translate(0.000000,980.000000) scale(0.100000,-0.100000)"
fill="#000000" stroke="none">
<path d="M3665 9664 c-755 -198 -1435 -559 -2015 -1070 -144 -126 -407 -395
-522 -534 -491 -592 -831 -1263 -1008 -1990 l-30 -124 0 -1043 0 -1043 25
-108 c334 -1414 1320 -2640 2632 -3274 89 -43 167 -78 172 -78 26 0 145 436
183 674 29 177 31 497 4 630 -50 249 -105 352 -546 1021 -341 518 -459 722
-549 946 -106 269 -123 411 -101 832 20 377 31 1205 20 1594 -13 519 -37 770
-92 995 -18 71 -20 92 -10 113 36 79 190 44 302 -70 99 -99 165 -240 190 -401
6 -38 12 -247 14 -464 4 -458 18 -629 77 -984 60 -356 184 -804 328 -1179 66
-173 153 -377 160 -377 4 0 47 17 97 38 70 31 89 42 87 58 -1 10 -37 123 -80
249 -119 346 -211 690 -260 975 -26 152 -26 485 0 553 32 82 87 98 186 52 216
-101 462 -405 526 -652 8 -32 22 -119 30 -193 62 -588 307 -1060 725 -1400
122 -99 186 -169 243 -267 148 -255 233 -612 284 -1198 30 -344 22 -1426 -13
-1798 l-5 -57 225 0 226 0 -5 28 c-17 110 -30 564 -30 1082 0 492 3 629 18
790 47 507 125 852 247 1089 73 142 134 217 264 320 230 183 393 383 520 638
122 245 186 472 221 784 18 161 41 242 103 363 160 312 505 580 606 471 41
-44 51 -104 51 -300 -1 -125 -6 -213 -19 -290 -47 -284 -141 -641 -271 -1023
-41 -122 -75 -225 -75 -229 0 -9 189 -88 194 -82 7 9 127 300 157 379 219 590
336 1092 390 1680 7 69 13 298 14 510 3 412 8 466 58 602 33 92 82 170 145
234 112 112 272 148 302 68 8 -19 5 -47 -9 -107 -57 -238 -77 -447 -93 -970
-12 -418 -2 -1179 24 -1725 9 -204 9 -270 -1 -345 -46 -326 -198 -648 -560
-1191 -459 -686 -569 -879 -621 -1079 -63 -250 -48 -642 40 -982 52 -205 104
-365 119 -365 35 0 427 218 625 348 1034 679 1773 1720 2077 2923 l39 157 0
1034 0 1034 -40 165 c-174 704 -514 1373 -994 1954 -129 156 -468 495 -621
621 -600 494 -1239 818 -1982 1004 l-121 30 -1054 -1 -1053 0 -170 -45z m1586
-74 c1349 -103 2586 -782 3399 -1865 472 -628 777 -1360 890 -2130 36 -251 45
-377 45 -690 0 -313 -9 -439 -45 -690 -209 -1432 -1075 -2691 -2345 -3411 -60
-35 -111 -61 -113 -60 -14 15 -73 288 -93 436 -17 125 -15 367 5 476 38 214
85 299 546 999 280 425 354 548 459 767 121 248 179 438 201 655 8 74 6 180
-7 433 -22 430 -25 1768 -5 2010 19 233 40 383 69 504 45 191 17 310 -91 383
-66 45 -115 56 -219 50 -78 -4 -98 -9 -170 -45 -204 -101 -346 -304 -413 -590
-12 -52 -18 -166 -24 -522 -5 -250 -11 -476 -15 -502 l-8 -47 -43 48 c-73 82
-169 112 -286 91 -259 -46 -591 -376 -726 -720 -38 -98 -59 -190 -72 -325 -53
-540 -277 -971 -663 -1278 -160 -128 -246 -235 -333 -414 -111 -229 -206 -616
-240 -981 -4 -40 -8 -71 -10 -70 -1 2 -12 80 -24 173 -70 559 -209 944 -424
1174 -17 18 -74 68 -126 109 -399 318 -614 737 -675 1312 -10 99 -24 169 -45
231 -153 456 -593 850 -883 789 -61 -12 -134 -59 -171 -109 -23 -31 -24 -31
-31 -9 -3 13 -10 237 -15 498 -8 501 -10 525 -61 680 -102 308 -335 510 -589
510 -69 0 -86 -4 -141 -33 -70 -36 -122 -94 -139 -155 -16 -58 -12 -156 9
-240 30 -117 48 -246 68 -477 25 -303 25 -1469 -1 -2005 -19 -393 -17 -473 15
-630 70 -344 208 -616 659 -1300 442 -670 487 -754 524 -969 20 -121 21 -345
1 -493 -26 -187 -88 -458 -106 -458 -10 0 -208 108 -309 168 -1121 674 -1917
1793 -2184 3070 -62 296 -86 512 -93 857 -12 592 57 1055 237 1595 290 873
829 1639 1555 2210 718 566 1615 918 2520 989 159 12 579 13 736 1z"/>
<path d="M3553 8490 c-134 -17 -258 -85 -369 -201 -115 -122 -186 -255 -237
-447 -29 -111 -30 -127 -31 -312 0 -168 3 -209 23 -300 80 -361 309 -768 660
-1170 106 -122 375 -392 531 -534 207 -188 547 -467 724 -594 l42 -31 140 106
c322 245 636 517 887 768 522 522 827 1000 928 1456 20 90 23 131 23 299 -1
185 -2 201 -31 312 -36 134 -93 262 -157 353 -94 130 -240 239 -375 279 -76
22 -276 31 -391 17 -243 -30 -357 -121 -775 -621 -131 -157 -241 -289 -245
-293 -5 -5 -99 101 -211 235 -447 536 -526 608 -734 663 -72 19 -300 28 -402
15z"/>
</g>
</svg>
